<svg xmlns="http://www.w3.org/2000/svg" viewBox="0 0 262.3 85.74"><title>logo</title><path d="M238.37,69.53a1.06,1.06,0,0,1-.36.87,1.28,1.28,0,0,1-1.64,0,1.22,1.22,0,0,1,0-1.74,1.27,1.27,0,0,1,1.64,0A1.06,1.06,0,0,1,238.37,69.53Z" style="fill:#999"/><path d="M238.94,67.19a3.93,3.93,0,0,1,.23-1.37A3.18,3.18,0,0,1,240.93,64a3.54,3.54,0,0,1,1.45-.28,4.73,4.73,0,0,1,1,.09,5,5,0,0,1,.86.27l-.39,1.51a5.09,5.09,0,0,0-.58-.18,3.17,3.17,0,0,0-.71-.07,1.5,1.5,0,0,0-1.25.52,2.14,2.14,0,0,0-.41,1.37,2.22,2.22,0,0,0,.39,1.39,1.62,1.62,0,0,0,1.35.49,4.56,4.56,0,0,0,.74-.06,3.17,3.17,0,0,0,.72-.2l.27,1.55a4.44,4.44,0,0,1-.82.24,5.55,5.55,0,0,1-1.09.1,4.11,4.11,0,0,1-1.57-.27,2.83,2.83,0,0,1-1.71-1.85A4.73,4.73,0,0,1,238.94,67.19Z" style="fill:#999"/><path d="M251.53,67.18a4.34,4.34,0,0,1-.23,1.44,3.12,3.12,0,0,1-.66,1.12,3,3,0,0,1-1,.72,3.47,3.47,0,0,1-1.35.25,3.43,3.43,0,0,1-1.34-.25,3,3,0,0,1-1-.72,3.28,3.28,0,0,1-.67-1.12,4.1,4.1,0,0,1-.24-1.44,3.94,3.94,0,0,1,.25-1.43,3.24,3.24,0,0,1,.68-1.11,3.1,3.1,0,0,1,1-.71,3.33,3.33,0,0,1,1.31-.25,3.38,3.38,0,0,1,1.33.25,3,3,0,0,1,1,.71,3.2,3.2,0,0,1,.67,1.11A4.07,4.07,0,0,1,251.53,67.18Zm-1.93,0a2.39,2.39,0,0,0-.35-1.38,1.14,1.14,0,0,0-1-.5,1.16,1.16,0,0,0-1,.5,2.35,2.35,0,0,0-.35,1.38,2.41,2.41,0,0,0,.35,1.39,1.15,1.15,0,0,0,1,.51,1.13,1.13,0,0,0,1-.51A2.45,2.45,0,0,0,249.6,67.18Z" style="fill:#999"/><path d="M256.65,67a2.61,2.61,0,0,0-.23-1.29.87.87,0,0,0-.81-.38l-.37,0-.37,0v5.15H253V64.08l.56-.13.69-.13.74-.09c.25,0,.5,0,.75,0a3.13,3.13,0,0,1,1.17.18,2.63,2.63,0,0,1,.74.44,3.23,3.23,0,0,1,.93-.46,3.29,3.29,0,0,1,1-.16,3.37,3.37,0,0,1,1.31.22,2,2,0,0,1,.82.63,2.38,2.38,0,0,1,.42,1,6.21,6.21,0,0,1,.12,1.24v3.77h-1.89V67a2.6,2.6,0,0,0-.24-1.29.87.87,0,0,0-.81-.38,1.72,1.72,0,0,0-.43.08,1.65,1.65,0,0,0-.45.19,3,3,0,0,1,.11.62c0,.21,0,.45,0,.69v3.64h-1.89Z" style="fill:#999"/><path d="M102.3,45a18.62,18.62,0,0,1,1.25-7.09,15.16,15.16,0,0,1,3.27-5.07,13.58,13.58,0,0,1,4.66-3.07,14.6,14.6,0,0,1,5.42-1q6.49,0,10.25,4t3.76,11.67c0,.5,0,1.05-.06,1.65s-.08,1.13-.12,1.59H111.16a5.74,5.74,0,0,0,2.49,4.23,10,10,0,0,0,5.91,1.56,25,25,0,0,0,4.66-.43A17.89,17.89,0,0,0,128,51.86l1.16,7a12,12,0,0,1-1.85.7,24.24,24.24,0,0,1-2.58.61c-.95.17-2,.32-3,.43a30.62,30.62,0,0,1-3.25.17,19.22,19.22,0,0,1-7.15-1.22,14,14,0,0,1-5-3.33,13.25,13.25,0,0,1-3-5A19.89,19.89,0,0,1,102.3,45Zm20.28-3.3a9,9,0,0,0-.38-2.14,5.36,5.36,0,0,0-1-1.85,5.28,5.28,0,0,0-1.68-1.33,5.51,5.51,0,0,0-2.52-.52,5.8,5.8,0,0,0-2.49.49,5.12,5.12,0,0,0-1.74,1.3,5.84,5.84,0,0,0-1.07,1.88,12.29,12.29,0,0,0-.55,2.17Z" style="fill:#161616"/><path d="M146.21,40.45q1.28-1.38,2.63-2.88t2.63-3l2.4-2.79q1.13-1.32,1.94-2.3h10.26q-3.07,3.53-6,6.74t-6.4,6.62a39.58,39.58,0,0,1,3.59,3.74q1.85,2.17,3.59,4.5t3.19,4.64q1.45,2.32,2.43,4.23h-9.93q-.93-1.51-2.11-3.34T151.93,53q-1.33-1.83-2.8-3.51a23.53,23.53,0,0,0-2.92-2.84V60h-8.63V16.41L146.21,15Z" style="fill:#161616"/><path d="M199.39,29.5q-2.61,8.81-5.46,16.51T187.71,61a34,34,0,0,1-2.44,4.43,13.62,13.62,0,0,1-2.67,3,9.39,9.39,0,0,1-3.28,1.74,14.82,14.82,0,0,1-4.26.55,17.37,17.37,0,0,1-3.74-.38,16.58,16.58,0,0,1-2.81-.84l1.5-6.89a14.72,14.72,0,0,0,2.38.63,13.48,13.48,0,0,0,2.2.18,4.83,4.83,0,0,0,3.56-1.25,10.05,10.05,0,0,0,2.12-3.45q-3-5.79-5.91-13A161.79,161.79,0,0,1,168.8,29.5H178q.58,2.26,1.37,4.9T181,39.73q.87,2.7,1.77,5.24t1.72,4.64q.75-2.09,1.57-4.64t1.6-5.24q.79-2.69,1.51-5.33t1.31-4.9Z" style="fill:#161616"/><path d="M204,30.55a48.42,48.42,0,0,1,5.67-1.19,46.66,46.66,0,0,1,7.3-.55,17.79,17.79,0,0,1,6.46,1,9.72,9.72,0,0,1,4.08,2.87,11.18,11.18,0,0,1,2.14,4.4,23.43,23.43,0,0,1,.64,5.68V60h-8.63V43.81q0-4.17-1.1-5.91t-4.11-1.74c-.62,0-1.28,0-2,.08s-1.31.13-1.85.21V60H204Z" style="fill:#161616"/><path d="M249,28.69a20,20,0,0,1,6.37.87,9.89,9.89,0,0,1,4.08,2.49A9.17,9.17,0,0,1,261.66,36a19.47,19.47,0,0,1,.64,5.15v18q-1.86.4-5.16,1a49.73,49.73,0,0,1-8,.55,25.19,25.19,0,0,1-5.36-.52,11.6,11.6,0,0,1-4.14-1.71,7.75,7.75,0,0,1-2.66-3.1,10.67,10.67,0,0,1-.93-4.69,8.89,8.89,0,0,1,1.07-4.52,8.26,8.26,0,0,1,2.87-3,12.83,12.83,0,0,1,4.11-1.59,23,23,0,0,1,4.81-.49,27.47,27.47,0,0,1,3,.14,13.66,13.66,0,0,1,2.12.38v-.81a4.77,4.77,0,0,0-1.33-3.54q-1.33-1.33-4.63-1.33a29.44,29.44,0,0,0-4.34.32,18.63,18.63,0,0,0-3.71.9l-1.1-7q.75-.23,1.88-.49t2.46-.46q1.33-.2,2.81-.35C247,28.74,248,28.69,249,28.69Zm.69,25.26q1.27,0,2.43-.06a16.91,16.91,0,0,0,1.86-.17V47.17c-.35-.08-.87-.15-1.56-.23a17.74,17.74,0,0,0-1.91-.12,17.22,17.22,0,0,0-2.29.15,6,6,0,0,0-1.88.55,3.25,3.25,0,0,0-1.27,1.1,3.06,3.06,0,0,0-.46,1.74A3,3,0,0,0,246,53.17,7.52,7.52,0,0,0,249.73,53.95Z" style="fill:#161616"/><polygon points="0 31.7 8.1 36.38 8.1 27.02 0 22.34 0 31.7" style="fill:#b21414"/><polygon points="9.5 70.09 17.6 74.77 17.6 65.42 9.5 60.74 9.5 70.09" style="fill:#b21414"/><polygon points="19 42.67 27.1 47.34 27.1 37.99 19 33.31 19 42.67" style="fill:#b21414"/><polygon points="19 75.58 27.1 80.25 27.1 70.9 19 66.22 19 75.58" style="fill:#b21414"/><polygon points="19 53.64 27.1 58.31 27.1 48.96 19 44.28 19 53.64" style="fill:#b21414"/><polygon points="28.5 81.06 36.6 85.74 36.6 76.39 28.5 71.71 28.5 81.06" style="fill:#b21414"/><polygon points="0 64.61 8.1 69.28 8.1 59.93 0 55.25 0 64.61" style="fill:#b21414"/><polygon points="0 42.67 8.1 47.34 8.1 37.99 0 33.31 0 42.67" style="fill:#b21414"/><polygon points="0 53.64 8.1 58.31 8.1 48.96 0 44.28 0 53.64" style="fill:#b21414"/><polygon points="28.5 59.12 36.6 63.8 36.6 54.45 28.5 49.77 28.5 59.12" style="fill:#b21414"/><polygon points="8.8 16.45 0.7 21.13 8.8 25.81 16.9 21.13 8.8 16.45" style="fill:#fa231b"/><polygon points="27.8 27.43 19.7 32.1 27.8 36.78 35.9 32.1 27.8 27.43" style="fill:#fa231b"/><polygon points="56.3 20.32 64.4 15.65 56.3 10.97 48.2 15.65 56.3 20.32" style="fill:#fa231b"/><polygon points="46.8 14.84 54.9 10.16 46.8 5.48 38.7 10.16 46.8 14.84" style="fill:#fa231b"/><polygon points="45.4 4.68 37.3 0 29.2 4.68 37.3 9.35 45.4 4.68" style="fill:#fa231b"/><polygon points="35.9 10.16 27.8 5.49 19.7 10.16 27.8 14.84 35.9 10.16" style="fill:#fa231b"/><polygon points="26.4 15.65 18.3 10.97 10.2 15.65 18.3 20.32 26.4 15.65" style="fill:#fa231b"/><polygon points="45.4 26.62 37.3 21.94 29.2 26.62 37.3 31.29 45.4 26.62" style="fill:#fa231b"/><polygon points="65.8 16.45 57.7 21.13 65.8 25.81 73.9 21.13 65.8 16.45" style="fill:#fa231b"/><polygon points="37.3 32.91 29.2 37.59 37.3 42.26 45.4 37.59 37.3 32.91" style="fill:#fa231b"/><polygon points="46.8 27.43 38.7 32.1 46.8 36.78 54.9 32.1 46.8 27.43" style="fill:#fa231b"/><polygon points="57 52.83 65.1 48.15 65.1 38.8 57 43.48 57 52.83" style="fill:#d61c18"/><polygon points="57 74.77 65.1 70.09 65.1 60.74 57 65.41 57 74.77" style="fill:#d61c18"/><polygon points="66.5 69.28 74.6 64.61 74.6 55.25 66.5 59.93 66.5 69.28" style="fill:#d61c18"/><polygon points="66.5 36.37 74.6 31.7 74.6 22.34 66.5 27.02 66.5 36.37" style="fill:#d61c18"/><polygon points="66.5 47.34 74.6 42.67 74.6 33.31 66.5 37.99 66.5 47.34" style="fill:#d61c18"/><polygon points="66.5 58.31 74.6 53.64 74.6 44.28 66.5 48.96 66.5 58.31" style="fill:#d61c18"/><polygon points="38 85.74 46.1 81.06 46.1 71.71 38 76.38 38 85.74" style="fill:#d61c18"/><polygon points="47.5 80.25 55.6 75.58 55.6 66.22 47.5 70.9 47.5 80.25" style="fill:#d61c18"/><polygon points="38 63.8 46.1 59.12 46.1 49.77 38 54.44 38 63.8" style="fill:#d61c18"/><polygon points="47.5 58.31 55.6 53.64 55.6 44.28 47.5 48.96 47.5 58.31" style="fill:#d61c18"/></svg>